# xmcd
#
# Track frame offsets:
#	150
#	15371
#	31904
#	48859
#	65418
#	81632
#	98608
#	115421
#	132329
#	149305
#	165437
#	179802
#	191083
#	203186
#	216949
#	228342
#	241977
#	257803
#	278218
#
# Disc length: 3950 seconds
# Revision: 0
# Processed by: cddbd v1.5.2PL0 Copyright (c) Steve Scherf et al.
# Submitted via: dBpowerAMP V12.0
#
DISCID=140f6c13
DTITLE=Various Artist - Country Radio April 2010
DYEAR=2010
DGENRE=Country
TTITLE0=Jason Blaine - Numb
TTITLE1=Tim McGraw - Still
TTITLE2=Kenny Chesney - Ain't Back Yet
TTITLE3=George Canyon - I Believe in Angels
TTITLE4=Deric Ruttan - Up All Night
TTITLE5=Miranda Lambert - The House That Built Me
TTITLE6=High Valley - I Will Stand By You
TTITLE7=Emily West Feat Keith Urban - Blue Sky
TTITLE8=Wyatt - Questions
TTITLE9=James Otto - Groovy Little Summer Thing
TTITLE10=Mallary Hope - Blossom In The Dust
TTITLE11=Cledus T Judd - Tiger By The Tail The Tail Of Tiger Woods
TTITLE12=Carter's Chord - You Knock Me Out
TTITLE13=Jason Aldean - Crazy Train
TTITLE14=Gord Bamford - Day Job
TTITLE15=Court Yard Hounds - The Coast
TTITLE16=Gloriana - The World Is Ours Tonight
TTITLE17=Chad Brownlee - Hope
TTITLE18=Ridley Bent - Arlington
EXTD=
EXTT0=
EXTT1=
EXTT2=
EXTT3=
EXTT4=
EXTT5=
EXTT6=
EXTT7=
EXTT8=
EXTT9=
EXTT10=
EXTT11=
EXTT12=
EXTT13=
EXTT14=
EXTT15=
EXTT16=
EXTT17=
EXTT18=
PLAYORDER=
